<svg width="20" height="20" viewBox="0 0 20 20" fill="none" xmlns="http://www.w3.org/2000/svg">
<g clip-path="url(#clip0_1_767)">
<mask id="mask0_1_767" style="mask-type:alpha" maskUnits="userSpaceOnUse" x="0" y="0" width="20" height="20">
<rect width="20" height="20" fill="#D9D9D9"/>
</mask>
<g mask="url(#mask0_1_767)">
<path d="M8.83973 13.6154H6.03206C5.03181 13.6154 4.17919 13.2624 3.47419 12.5566C2.76919 11.8508 2.41669 10.9972 2.41669 9.99575C2.41669 8.99432 2.76919 8.14211 3.47419 7.43912C4.17919 6.73614 5.03181 6.38464 6.03206 6.38464H8.83973V7.46793H6.03206C5.33227 7.46793 4.73531 7.715 4.24119 8.20912C3.74706 8.70325 3.5 9.30021 3.5 10C3.5 10.6998 3.74706 11.2967 4.24119 11.7909C4.73531 12.285 5.33227 12.5321 6.03206 12.5321H8.83973V13.6154ZM7.20835 10.5416V9.45835H12.7916V10.5416H7.20835ZM11.1603 13.6154V12.5321H13.9679C14.6677 12.5321 15.2647 12.285 15.7588 11.7909C16.2529 11.2967 16.5 10.6998 16.5 10C16.5 9.30021 16.2529 8.70325 15.7588 8.20912C15.2647 7.715 14.6677 7.46793 13.9679 7.46793H11.1603V6.38464H13.9679C14.9682 6.38464 15.8208 6.73755 16.5258 7.44337C17.2308 8.14921 17.5833 9.00283 17.5833 10.0042C17.5833 11.0057 17.2308 11.8579 16.5258 12.5609C15.8208 13.2639 14.9682 13.6154 13.9679 13.6154H11.1603Z" fill="#171717"/>
</g>
</g>
<defs>
<clipPath id="clip0_1_767">
<rect width="20" height="20" fill="white"/>
</clipPath>
</defs>
</svg>
